# Blender v2.79 (sub 0) OBJ File: ''
# www.blender.org
mtllib simplePlane.mtl
o Plane
v -5.000000 0.000000 5.000000
v 5.000000 0.000000 5.000000
v -5.000000 0.000000 -5.000000
v 5.000000 0.000000 -5.000000
v -5.000000 0.177229 0.000000
v 0.000000 0.195094 5.000000
v 5.000000 0.177229 0.000000
v 0.000000 0.195094 -5.000000
v -0.136495 0.000000 -0.045498
v -5.000000 0.000000 2.500000
v 2.500000 0.322716 5.000000
v 5.000000 0.177229 -2.500000
v -2.500000 0.000000 -5.000000
v -5.000000 0.177229 -2.500000
v -2.500000 0.000000 5.000000
v 5.000000 0.000000 2.500000
v 2.500000 0.322716 -5.000000
v 0.000000 0.094934 -2.500000
v 0.000000 0.075025 2.500000
v -2.500000 0.133952 0.000000
v 2.500000 0.093753 0.000000
v 2.363506 0.217681 2.454502
v -2.803321 0.108707 2.166347
v -2.469668 0.000000 -2.500000
v 2.409004 0.093753 -2.575830
v -5.000000 0.000000 3.750000
v 3.750000 0.127622 5.000000
v 5.000000 0.000000 -3.750000
v -3.750000 0.094972 -5.000000
v -5.000000 0.227399 -1.250000
v -1.250000 0.000000 5.000000
v 5.000000 0.000000 1.250000
v 1.250000 0.322716 -5.000000
v -0.227491 0.000000 -3.871328
v -0.136495 0.000000 1.204502
v -3.901660 0.000000 -0.288155
v 1.098340 0.093753 -0.288155
v -5.000000 0.000000 1.250000
v 1.250000 0.322716 5.000000
v 5.000000 0.227399 -1.250000
v -1.250000 0.000000 -5.000000
v -5.000000 0.000000 -3.750000
v -3.750000 0.094972 5.000000
v 5.000000 0.000000 3.750000
v 3.750000 0.127622 -5.000000
v 0.181993 0.000000 -1.204502
v 0.181993 0.000000 3.795498
v -1.401661 0.133952 -0.045498
v 3.461845 0.000000 -0.090996
v 2.439336 0.093753 1.037675
v 2.211845 0.217681 3.659004
v 1.371328 0.093753 2.333173
v 3.750000 0.000000 2.500000
v -2.318007 0.000000 1.462325
v -2.500000 0.093925 3.750000
v -3.750000 0.000000 2.500000
v -1.250000 0.000000 2.500000
v -2.560664 0.106066 -3.704502
v -2.590996 0.133952 -1.325830
v -3.750000 0.000000 -2.500000
v -1.250000 0.000000 -2.500000
v 2.500000 0.217681 -3.750000
v 2.409004 0.093753 -1.325830
v 1.037675 0.093753 -2.757823
v 3.461845 0.000000 -2.590996
v 3.750000 0.000000 -1.250000
v 1.250000 0.093753 -1.250000
v 1.113505 0.217681 -3.795498
v -1.401661 0.133952 -1.295498
v -3.810664 0.000000 -1.462325
v -3.568007 0.000000 -3.704502
v -1.310664 0.000000 3.537675
v -3.901660 0.000000 3.689336
v -3.750000 0.000000 1.250000
v 3.931993 0.000000 3.795498
v 1.250000 0.217681 3.750000
v 1.098339 0.093753 1.204502
v 3.931993 0.000000 1.295498
v -1.113505 0.000000 1.083173
v -1.477491 0.000000 -3.825830
v 3.613506 0.000000 -3.795498
vt 0.805469 0.366016
vt 0.905469 0.366016
vt 0.905469 0.466016
vt 0.576953 0.856250
vt 0.676953 0.856250
vt 0.676953 0.956250
vt 0.055469 0.354297
vt 0.155469 0.354297
vt 0.155469 0.454297
vt 0.825000 0.858203
vt 0.925000 0.858203
vt 0.925000 0.958203
vt 0.557422 0.364063
vt 0.657422 0.364063
vt 0.657422 0.464063
vt 0.825000 0.858203
vt 0.925000 0.858203
vt 0.925000 0.958203
vt 0.055469 0.354297
vt 0.155469 0.354297
vt 0.155469 0.454297
vt 0.323047 0.848437
vt 0.423047 0.848437
vt 0.423047 0.948437
vt 0.323047 0.848437
vt 0.423047 0.848437
vt 0.423047 0.948437
vt 0.303516 0.356250
vt 0.403516 0.356250
vt 0.403516 0.456250
vt 0.075000 0.846484
vt 0.175000 0.846484
vt 0.175000 0.946484
vt 0.557422 0.364063
vt 0.657422 0.364063
vt 0.657422 0.464063
vt 0.825000 0.858203
vt 0.925000 0.858203
vt 0.925000 0.958203
vt 0.055469 0.354297
vt 0.155469 0.354297
vt 0.155469 0.454297
vt 0.323047 0.848437
vt 0.423047 0.848437
vt 0.423047 0.948437
vt 0.557422 0.364063
vt 0.657422 0.364063
vt 0.657422 0.464063
vt 0.055469 0.354297
vt 0.155469 0.354297
vt 0.155469 0.454297
vt 0.825000 0.858203
vt 0.925000 0.858203
vt 0.925000 0.958203
vt 0.323047 0.848437
vt 0.423047 0.848437
vt 0.423047 0.948437
vt 0.303516 0.356250
vt 0.403516 0.356250
vt 0.403516 0.456250
vt 0.323047 0.848437
vt 0.423047 0.848437
vt 0.423047 0.948437
vt 0.825000 0.858203
vt 0.925000 0.958203
vt 0.576953 0.856250
vt 0.676953 0.856250
vt 0.676953 0.956250
vt 0.303516 0.356250
vt 0.403516 0.356250
vt 0.403516 0.456250
vt 0.557422 0.364063
vt 0.657422 0.364063
vt 0.657422 0.464063
vt 0.323047 0.848437
vt 0.423047 0.848437
vt 0.423047 0.948437
vt 0.323047 0.848437
vt 0.423047 0.848437
vt 0.303516 0.356250
vt 0.403516 0.356250
vt 0.403516 0.456250
vt 0.055469 0.354297
vt 0.155469 0.354297
vt 0.155469 0.454297
vt 0.557422 0.364063
vt 0.657422 0.364063
vt 0.657422 0.464063
vt 0.825000 0.858203
vt 0.925000 0.858203
vt 0.925000 0.958203
vt 0.557422 0.364063
vt 0.657422 0.364063
vt 0.657422 0.464063
vt 0.825000 0.858203
vt 0.925000 0.858203
vt 0.925000 0.958203
vt 0.825000 0.858203
vt 0.925000 0.858203
vt 0.925000 0.958203
vt 0.805469 0.366016
vt 0.905469 0.366016
vt 0.905469 0.466016
vt 0.303516 0.356250
vt 0.403516 0.356250
vt 0.403516 0.456250
vt 0.557422 0.364063
vt 0.657422 0.364063
vt 0.657422 0.464063
vt 0.557422 0.364063
vt 0.657422 0.364063
vt 0.657422 0.464063
vt 0.576953 0.856250
vt 0.676953 0.856250
vt 0.676953 0.956250
vt 0.805469 0.366016
vt 0.905469 0.366016
vt 0.905469 0.466016
vt 0.423047 0.848437
vt 0.423047 0.948437
vt 0.055469 0.354297
vt 0.155469 0.354297
vt 0.155469 0.454297
vt 0.557422 0.364063
vt 0.657422 0.364063
vt 0.657422 0.464063
vt 0.303516 0.356250
vt 0.403516 0.356250
vt 0.403516 0.456250
vt 0.075000 0.846484
vt 0.175000 0.846484
vt 0.175000 0.946484
vt 0.825000 0.858203
vt 0.925000 0.858203
vt 0.925000 0.958203
vt 0.805469 0.366016
vt 0.905469 0.366016
vt 0.905469 0.466016
vt 0.805469 0.366016
vt 0.905469 0.366016
vt 0.905469 0.466016
vt 0.576953 0.856250
vt 0.676953 0.856250
vt 0.676953 0.956250
vt 0.075000 0.846484
vt 0.175000 0.846484
vt 0.175000 0.946484
vt 0.576953 0.856250
vt 0.676953 0.856250
vt 0.676953 0.956250
vt 0.557422 0.364063
vt 0.657422 0.364063
vt 0.657422 0.464063
vt 0.303516 0.356250
vt 0.403516 0.356250
vt 0.403516 0.456250
vt 0.303516 0.356250
vt 0.403516 0.356250
vt 0.403516 0.456250
vt 0.825000 0.858203
vt 0.925000 0.858203
vt 0.925000 0.958203
vt 0.075000 0.846484
vt 0.175000 0.846484
vt 0.175000 0.946484
vt 0.303516 0.356250
vt 0.403516 0.356250
vt 0.403516 0.456250
vt 0.075000 0.846484
vt 0.175000 0.846484
vt 0.175000 0.946484
vt 0.557422 0.364063
vt 0.657422 0.364063
vt 0.657422 0.464063
vt 0.055469 0.354297
vt 0.155469 0.354297
vt 0.155469 0.454297
vt 0.055469 0.354297
vt 0.155469 0.354297
vt 0.155469 0.454297
vt 0.323047 0.848437
vt 0.423047 0.848437
vt 0.423047 0.948437
vt 0.576953 0.856250
vt 0.676953 0.856250
vt 0.676953 0.956250
vt 0.303516 0.356250
vt 0.403516 0.356250
vt 0.403516 0.456250
vt 0.576953 0.856250
vt 0.676953 0.856250
vt 0.676953 0.956250
vt 0.825000 0.858203
vt 0.925000 0.858203
vt 0.925000 0.958203
vt 0.303516 0.356250
vt 0.403516 0.356250
vt 0.403516 0.456250
vt 0.075000 0.846484
vt 0.175000 0.846484
vt 0.175000 0.946484
vt 0.303516 0.356250
vt 0.403516 0.356250
vt 0.925000 0.858203
vt 0.925000 0.958203
vt 0.825000 0.858203
vt 0.925000 0.858203
vt 0.925000 0.958203
vt 0.825000 0.858203
vt 0.925000 0.858203
vt 0.925000 0.958203
vt 0.905469 0.366016
vt 0.905469 0.466016
vt 0.805469 0.366016
vt 0.905469 0.466016
vt 0.576953 0.856250
vt 0.676953 0.856250
vt 0.676953 0.956250
vt 0.825000 0.858203
vt 0.925000 0.858203
vt 0.423047 0.948437
vt 0.303516 0.356250
vt 0.403516 0.356250
vt 0.403516 0.456250
vt 0.423047 0.848437
vt 0.423047 0.948437
vt 0.825000 0.858203
vt 0.925000 0.858203
vt 0.925000 0.958203
vt 0.155469 0.354297
vt 0.155469 0.454297
vt 0.925000 0.858203
vt 0.925000 0.958203
vt 0.557422 0.364063
vt 0.657422 0.364063
vt 0.657422 0.464063
vt 0.805469 0.366016
vt 0.905469 0.366016
vt 0.905469 0.466016
vt 0.055469 0.354297
vt 0.155469 0.354297
vt 0.155469 0.454297
vt 0.155469 0.354297
vt 0.155469 0.454297
vt 0.825000 0.858203
vt 0.925000 0.858203
vt 0.925000 0.958203
vt 0.075000 0.846484
vt 0.175000 0.846484
vt 0.175000 0.946484
vt 0.175000 0.846484
vt 0.175000 0.946484
vt 0.303516 0.356250
vt 0.403516 0.356250
vt 0.403516 0.456250
vt 0.303516 0.356250
vt 0.403516 0.356250
vt 0.403516 0.456250
vt 0.805469 0.366016
vt 0.905469 0.366016
vt 0.905469 0.466016
vt 0.303516 0.356250
vt 0.403516 0.356250
vt 0.403516 0.456250
vt 0.075000 0.846484
vt 0.175000 0.846484
vt 0.175000 0.946484
vt 0.805469 0.366016
vt 0.905469 0.366016
vt 0.905469 0.466016
vt 0.657422 0.364063
vt 0.657422 0.464063
vt 0.303516 0.356250
vt 0.403516 0.356250
vt 0.403516 0.456250
vt 0.303516 0.356250
vt 0.403516 0.356250
vt 0.403516 0.456250
vt 0.075000 0.846484
vt 0.175000 0.846484
vt 0.175000 0.946484
vt 0.805469 0.366016
vt 0.905469 0.366016
vt 0.905469 0.466016
vt 0.403516 0.356250
vt 0.403516 0.456250
vt 0.323047 0.848437
vt 0.423047 0.948437
vt 0.075000 0.846484
vt 0.175000 0.846484
vt 0.175000 0.946484
vt 0.576953 0.856250
vt 0.676953 0.856250
vt 0.676953 0.956250
vt 0.303516 0.356250
vt 0.403516 0.356250
vt 0.403516 0.456250
vt 0.075000 0.846484
vt 0.175000 0.846484
vt 0.175000 0.946484
vt 0.825000 0.858203
vt 0.925000 0.958203
vt 0.055469 0.354297
vt 0.155469 0.354297
vt 0.576953 0.856250
vt 0.676953 0.856250
vt 0.676953 0.956250
vt 0.055469 0.354297
vt 0.155469 0.354297
vt 0.155469 0.454297
vt 0.303516 0.356250
vt 0.403516 0.356250
vt 0.403516 0.456250
vt 0.905469 0.366016
vt 0.303516 0.356250
vt 0.403516 0.356250
vt 0.403516 0.456250
vt 0.576953 0.856250
vt 0.676953 0.856250
vt 0.676953 0.956250
vt 0.075000 0.846484
vt 0.175000 0.846484
vt 0.175000 0.946484
vt 0.323047 0.848437
vt 0.423047 0.848437
vt 0.423047 0.948437
vt 0.557422 0.364063
vt 0.657422 0.364063
vt 0.657422 0.464063
vt 0.805469 0.366016
vt 0.905469 0.366016
vt 0.905469 0.466016
vt 0.075000 0.846484
vt 0.175000 0.946484
vt 0.825000 0.858203
vt 0.925000 0.858203
vt 0.175000 0.846484
vt 0.576953 0.856250
vt 0.676953 0.856250
vt 0.657422 0.364063
vt 0.657422 0.464063
vt 0.557422 0.364063
vt 0.657422 0.364063
vt 0.657422 0.464063
vt 0.075000 0.846484
vt 0.175000 0.846484
vt 0.805469 0.366016
vt 0.905469 0.466016
vt 0.825000 0.858203
vt 0.925000 0.858203
vt 0.925000 0.958203
vt 0.055469 0.354297
vt 0.155469 0.354297
vt 0.155469 0.454297
vn -0.0034 0.9945 0.1050
vn 0.0000 1.0000 0.0000
vn 0.1049 0.9903 0.0908
vn -0.1167 0.9924 0.0396
vn -0.0083 0.9961 -0.0878
vn -0.0971 0.9952 0.0096
vn -0.0665 0.9978 -0.0085
vn -0.0599 0.9982 -0.0035
vn 0.0756 0.9952 0.0623
vn -0.1085 0.9941 -0.0063
vn -0.0752 0.9900 -0.1196
vn -0.0028 0.9962 0.0866
vn -0.1159 0.9930 0.0249
vn 0.0887 0.9961 0.0000
vn 0.0964 0.9953 -0.0066
vn -0.1128 0.9932 -0.0280
vn -0.0836 0.9929 0.0845
vn -0.0800 0.9966 -0.0220
vn -0.1662 0.9768 0.1353
vn -0.0154 0.9977 -0.0665
vn -0.0039 0.9930 0.1183
vn 0.0029 0.9936 -0.1131
vn 0.1053 0.9944 0.0000
vn 0.1809 0.9827 -0.0394
vn 0.1693 0.9848 0.0395
vn -0.1082 0.9941 -0.0084
vn -0.0758 0.9971 0.0000
vn 0.1390 0.9805 -0.1390
vn 0.0707 0.9975 -0.0042
vn 0.0000 0.9972 0.0749
vn -0.0639 0.9959 -0.0648
vn 0.0000 0.9901 0.1404
vn -0.1141 0.9935 0.0000
vn 0.1544 0.9878 0.0194
vn 0.1331 0.9854 -0.1058
vn 0.1012 0.9908 -0.0897
vn -0.1956 0.9771 0.0841
vn -0.1000 0.9797 -0.1738
vn -0.0079 0.9965 -0.0837
vn -0.0757 0.9971 0.0000
vn -0.0756 0.9959 -0.0497
vn 0.0975 0.9952 0.0057
vn 0.0767 0.9936 -0.0828
vn 0.0276 0.9958 0.0878
vn 0.0891 0.9918 -0.0917
vn 0.0886 0.9931 -0.0772
vn 0.1059 0.9912 0.0793
vn 0.1944 0.9775 0.0821
vn 0.0897 0.9897 0.1114
vn -0.1136 0.9934 -0.0143
vn 0.1016 0.9948 0.0000
vn -0.1527 0.9785 0.1384
vn 0.0060 0.9901 0.1404
vn -0.1221 0.9924 -0.0154
vn -0.0138 0.9956 0.0929
vn -0.1039 0.9942 0.0292
vn -0.0102 0.9982 0.0592
vn -0.1043 0.9908 -0.0860
vn 0.0000 0.9936 -0.1133
vn 0.0806 0.9948 0.0616
vn 0.0000 0.9965 0.0837
vn -0.1788 0.9831 -0.0395
vn 0.0706 0.9974 -0.0152
vn 0.0688 0.9975 0.0171
vn -0.1788 0.9831 0.0395
vn 0.0011 1.0000 -0.0002
vn -0.0880 0.9960 -0.0139
vn -0.1013 0.9920 0.0750
vn -0.1651 0.9807 0.1051
vn -0.0138 0.9945 0.1039
vn 0.0000 0.9939 -0.1105
vn 0.0830 0.9963 0.0228
vn 0.1404 0.9901 0.0082
vn 0.1903 0.9816 0.0147
vn -0.0965 0.9953 0.0066
vn -0.0023 0.9973 0.0734
vn -0.1042 0.9900 0.0951
vn 0.0796 0.9968 0.0047
vn 0.0782 0.9969 -0.0032
vn -0.1517 0.9718 -0.1803
vn -0.0756 0.9951 -0.0634
vn 0.0755 0.9943 0.0747
vn 0.1554 0.9877 -0.0153
vn 0.0206 0.9901 -0.1387
vn 0.1269 0.9918 -0.0178
vn 0.1537 0.9848 -0.0811
vn -0.0244 0.9957 -0.0892
vn -0.2024 0.9759 -0.0820
vn 0.0000 0.9969 -0.0781
vn -0.0133 0.9999 0.0032
vn -0.1123 0.9894 -0.0925
vn 0.0666 0.9975 -0.0226
vn 0.1543 0.9877 0.0233
vn 0.0048 0.9932 0.1166
vn -0.0598 0.9969 -0.0514
vn -0.0756 0.9955 -0.0564
vn 0.1531 0.9807 0.1213
vn 0.1928 0.9809 0.0243
vn 0.0046 0.9901 -0.1404
usemtl Material
s off
f 28/1/1 45/2/1 81/3/1
f 34/4/2 41/5/2 80/6/2
f 79/7/3 9/8/3 48/9/3
f 78/10/4 7/11/4 49/12/4
f 77/13/2 21/14/2 37/15/2
f 51/16/5 52/17/5 76/18/5
f 75/19/2 16/20/2 53/21/2
f 74/22/6 20/23/6 36/24/6
f 55/25/7 56/26/7 73/27/7
f 72/28/8 19/29/8 57/30/8
f 71/31/9 13/32/9 29/33/9
f 59/34/10 60/35/10 70/36/10
f 69/37/11 18/38/11 61/39/11
f 62/40/12 33/41/12 68/42/12
f 67/43/2 25/44/2 64/45/2
f 66/46/13 12/47/13 65/48/13
f 63/49/14 65/50/14 25/51/14
f 49/52/15 63/53/15 21/54/15
f 7/55/16 66/56/16 49/57/16
f 67/58/17 18/59/17 46/60/17
f 37/61/18 46/62/18 9/63/18
f 37/64/2 63/53/2 67/65/2
f 68/66/19 8/67/19 34/68/19
f 64/69/20 34/70/20 18/71/20
f 64/72/21 62/73/21 68/74/21
f 69/75/22 24/76/22 59/77/22
f 20/78/2 69/79/2 59/77/2
f 9/80/23 69/81/23 48/82/23
f 70/83/24 14/84/24 30/85/24
f 36/86/25 30/87/25 5/88/25
f 36/89/26 59/90/26 70/91/26
f 42/92/27 29/93/27 3/94/27
f 60/95/28 42/96/28 14/97/28
f 24/98/2 71/99/2 60/100/2
f 55/101/29 57/102/29 23/103/29
f 31/104/30 55/105/30 15/106/30
f 31/107/2 47/108/2 72/109/2
f 73/110/2 10/111/2 26/112/2
f 1/113/2 73/114/2 26/115/2
f 43/116/31 55/117/31 73/118/31
f 74/22/32 5/119/32 38/120/32
f 56/121/2 38/122/2 10/123/2
f 23/124/33 74/125/33 56/126/33
f 51/127/34 53/128/34 22/129/34
f 11/130/35 75/131/35 51/132/35
f 2/133/36 75/134/36 27/135/36
f 76/136/37 19/137/37 47/138/37
f 39/139/38 47/140/38 6/141/38
f 39/142/39 51/143/39 76/144/39
f 77/145/40 9/146/40 35/147/40
f 19/148/41 77/149/41 35/150/41
f 52/151/2 50/152/2 77/153/2
f 50/154/42 49/155/42 21/156/42
f 22/157/43 78/158/43 50/159/43
f 16/160/2 78/161/2 53/162/2
f 79/163/44 20/164/44 54/165/44
f 57/166/45 54/167/45 23/168/45
f 57/169/2 35/170/2 79/171/2
f 80/172/46 13/173/46 58/174/46
f 24/175/47 80/176/47 58/177/47
f 61/178/2 34/179/2 80/180/2
f 81/181/48 17/182/48 62/183/48
f 65/184/49 62/185/49 25/186/49
f 12/187/50 81/188/50 65/189/50
f 28/190/51 4/191/51 45/192/51
f 34/193/52 8/194/52 41/195/52
f 79/196/2 35/197/2 9/198/2
f 78/199/53 32/200/53 7/201/53
f 77/202/2 50/203/2 21/156/2
f 51/16/54 22/204/54 52/205/54
f 75/206/2 44/207/2 16/208/2
f 74/209/55 54/210/55 20/211/55
f 55/101/56 23/212/56 56/213/56
f 72/214/57 47/140/57 19/215/57
f 71/216/58 58/217/58 13/218/58
f 59/219/59 24/220/59 60/100/59
f 69/75/60 46/62/60 18/221/60
f 62/222/61 17/223/61 33/224/61
f 67/43/2 63/225/2 25/226/2
f 66/227/62 40/228/62 12/229/62
f 63/49/63 66/230/63 65/231/63
f 49/52/64 66/232/64 63/233/64
f 7/234/65 40/235/65 66/236/65
f 67/237/66 64/238/66 18/239/66
f 37/240/67 67/241/67 46/242/67
f 37/240/2 21/243/2 63/244/2
f 68/245/68 33/246/68 8/247/68
f 64/248/69 68/249/69 34/250/69
f 64/248/70 25/251/70 62/252/70
f 69/253/71 61/254/71 24/255/71
f 20/256/2 48/257/2 69/258/2
f 9/259/72 46/260/72 69/261/72
f 70/262/73 60/263/73 14/264/73
f 36/265/74 70/266/74 30/267/74
f 36/268/75 20/269/75 59/270/75
f 42/92/76 71/271/76 29/272/76
f 60/273/2 71/274/2 42/275/2
f 24/276/77 58/277/77 71/278/77
f 55/279/78 72/280/78 57/281/78
f 31/282/79 72/283/79 55/284/79
f 31/104/80 6/285/80 47/286/80
f 73/287/2 56/26/2 10/288/2
f 1/289/81 43/290/81 73/291/81
f 43/292/82 15/293/82 55/294/82
f 74/295/83 36/296/83 5/297/83
f 56/298/2 74/299/2 38/300/2
f 23/301/84 54/210/84 74/302/84
f 51/303/85 75/304/85 53/21/85
f 11/305/86 27/306/86 75/307/86
f 2/308/2 44/309/2 75/310/2
f 76/311/87 52/312/87 19/313/87
f 39/139/88 76/314/88 47/138/88
f 39/315/89 11/316/89 51/317/89
f 77/318/40 37/319/40 9/320/40
f 19/321/90 52/322/90 77/323/90
f 52/324/91 22/325/91 50/326/91
f 50/327/92 78/328/92 49/329/92
f 22/330/93 53/331/93 78/332/93
f 16/333/2 32/200/2 78/334/2
f 79/335/94 48/336/94 20/211/94
f 57/169/2 79/337/2 54/165/2
f 57/338/95 19/339/95 35/150/95
f 80/172/2 41/340/2 13/341/2
f 24/342/2 61/343/2 80/344/2
f 61/345/96 18/346/96 34/250/96
f 81/347/97 45/2/97 17/348/97
f 65/349/98 81/350/98 62/351/98
f 12/352/99 28/353/99 81/354/99
