# Blender v2.79 (sub 0) OBJ File: ''
# www.blender.org
mtllib ball1_smooth_tex.mtl
o Icosphere
v 0.000000 -1.000000 0.000000
v 0.723607 -0.447220 0.525725
v -0.276388 -0.447220 0.850649
v -0.894426 -0.447216 0.000000
v -0.276388 -0.447220 -0.850649
v 0.723607 -0.447220 -0.525725
v 0.276388 0.447220 0.850649
v -0.723607 0.447220 0.525725
v -0.723607 0.447220 -0.525725
v 0.276388 0.447220 -0.850649
v 0.894426 0.447216 0.000000
v 0.000000 1.000000 0.000000
v -0.162456 -0.850654 0.499995
v 0.425323 -0.850654 0.309011
v 0.262869 -0.525738 0.809012
v 0.850648 -0.525736 0.000000
v 0.425323 -0.850654 -0.309011
v -0.525730 -0.850652 0.000000
v -0.688189 -0.525736 0.499997
v -0.162456 -0.850654 -0.499995
v -0.688189 -0.525736 -0.499997
v 0.262869 -0.525738 -0.809012
v 0.951058 0.000000 0.309013
v 0.951058 0.000000 -0.309013
v 0.000000 0.000000 1.000000
v 0.587786 0.000000 0.809017
v -0.951058 0.000000 0.309013
v -0.587786 0.000000 0.809017
v -0.587786 0.000000 -0.809017
v -0.951058 0.000000 -0.309013
v 0.587786 0.000000 -0.809017
v 0.000000 0.000000 -1.000000
v 0.688189 0.525736 0.499997
v -0.262869 0.525738 0.809012
v -0.850648 0.525736 0.000000
v -0.262869 0.525738 -0.809012
v 0.688189 0.525736 -0.499997
v 0.162456 0.850654 0.499995
v 0.525730 0.850652 0.000000
v -0.425323 0.850654 0.309011
v -0.425323 0.850654 -0.309011
v 0.162456 0.850654 -0.499995
vt 0.577149 0.061524
vt 0.645507 0.061524
vt 0.645507 0.129882
vt 0.323243 0.528321
vt 0.391601 0.528321
vt 0.391601 0.596679
vt 0.094727 0.395509
vt 0.163085 0.395509
vt 0.163085 0.463866
vt 0.581056 0.061524
vt 0.649413 0.061524
vt 0.649413 0.129882
vt 0.329102 0.059571
vt 0.397460 0.059571
vt 0.397460 0.127929
vt 0.581056 0.061524
vt 0.649413 0.061524
vt 0.649413 0.129882
vt 0.094727 0.395509
vt 0.163085 0.395509
vt 0.163085 0.463866
vt 0.829102 0.055665
vt 0.897460 0.055665
vt 0.897460 0.124023
vt 0.829102 0.055665
vt 0.897460 0.055665
vt 0.897460 0.124023
vt 0.842774 0.545899
vt 0.911132 0.545899
vt 0.911132 0.614257
vt 0.081056 0.538087
vt 0.149413 0.538087
vt 0.149413 0.606444
vt 0.329102 0.059571
vt 0.397460 0.059571
vt 0.397460 0.127929
vt 0.588868 0.387696
vt 0.657226 0.387696
vt 0.657226 0.456054
vt 0.094727 0.395509
vt 0.163085 0.395509
vt 0.163085 0.463866
vt 0.840821 0.038087
vt 0.909179 0.038087
vt 0.909179 0.106444
vt 0.336915 0.385743
vt 0.405273 0.385743
vt 0.405273 0.454101
vt 0.086915 0.069337
vt 0.155273 0.069337
vt 0.155273 0.137694
vt 0.588868 0.387696
vt 0.657226 0.387696
vt 0.657226 0.456054
vt 0.840821 0.038087
vt 0.909179 0.038087
vt 0.909179 0.106444
vt 0.850587 0.872071
vt 0.918944 0.872071
vt 0.918944 0.940429
vt 0.840821 0.038087
vt 0.909179 0.038087
vt 0.909179 0.106444
vt 0.588868 0.387696
vt 0.657226 0.387696
vt 0.657226 0.456054
vt 0.331056 0.854493
vt 0.399413 0.854493
vt 0.399413 0.922851
vt 0.850587 0.872071
vt 0.918944 0.872071
vt 0.918944 0.940429
vt 0.329102 0.059571
vt 0.397460 0.059571
vt 0.397460 0.127929
vt 0.840821 0.038087
vt 0.909179 0.038087
vt 0.909179 0.106444
vt 0.840821 0.038087
vt 0.909179 0.038087
vt 0.842774 0.545899
vt 0.911132 0.545899
vt 0.911132 0.614257
vt 0.086915 0.069337
vt 0.155273 0.069337
vt 0.329102 0.059571
vt 0.397460 0.059571
vt 0.397460 0.127929
vt 0.588868 0.387696
vt 0.657226 0.387696
vt 0.657226 0.456054
vt 0.336915 0.385743
vt 0.405273 0.385743
vt 0.581056 0.061524
vt 0.649413 0.061524
vt 0.649413 0.129882
vt 0.649413 0.061524
vt 0.649413 0.129882
vt 0.584962 0.387696
vt 0.653319 0.387696
vt 0.653319 0.456054
vt 0.850587 0.872071
vt 0.918944 0.940429
vt 0.336915 0.385743
vt 0.405273 0.385743
vt 0.405273 0.454101
vt 0.329102 0.059571
vt 0.397460 0.059571
vt 0.397460 0.127929
vt 0.323243 0.528321
vt 0.391601 0.528321
vt 0.391601 0.596679
vt 0.584962 0.387696
vt 0.653319 0.387696
vt 0.653319 0.456054
vt 0.829102 0.055665
vt 0.897460 0.055665
vt 0.897460 0.124023
vt 0.094727 0.395509
vt 0.163085 0.395509
vt 0.163085 0.463866
vt 0.336915 0.385743
vt 0.405273 0.385743
vt 0.405273 0.454101
vt 0.850587 0.872071
vt 0.918944 0.872071
vt 0.918944 0.940429
vt 0.088868 0.864259
vt 0.157226 0.864259
vt 0.157226 0.932616
vt 0.581056 0.061524
vt 0.649413 0.061524
vt 0.649413 0.129882
vt 0.577149 0.061524
vt 0.645507 0.061524
vt 0.645507 0.129882
vt 0.577149 0.061524
vt 0.645507 0.061524
vt 0.645507 0.129882
vt 0.331056 0.854493
vt 0.399413 0.854493
vt 0.399413 0.922851
vt 0.081056 0.538087
vt 0.149413 0.538087
vt 0.149413 0.606444
vt 0.323243 0.528321
vt 0.391601 0.528321
vt 0.336915 0.385743
vt 0.405273 0.385743
vt 0.405273 0.454101
vt 0.842774 0.545899
vt 0.911132 0.545899
vt 0.911132 0.614257
vt 0.850587 0.872071
vt 0.918944 0.872071
vt 0.918944 0.940429
vt 0.588868 0.387696
vt 0.657226 0.387696
vt 0.081056 0.538087
vt 0.149413 0.538087
vt 0.149413 0.606444
vt 0.918944 0.872071
vt 0.918944 0.940429
vt 0.081056 0.538087
vt 0.149413 0.538087
vt 0.149413 0.606444
vt 0.329102 0.059571
vt 0.397460 0.059571
vt 0.094727 0.395509
vt 0.163085 0.395509
vt 0.163085 0.463866
vt 0.086915 0.069337
vt 0.155273 0.069337
vt 0.155273 0.137694
vt 0.840821 0.038087
vt 0.909179 0.038087
vt 0.909179 0.106444
vt 0.331056 0.854493
vt 0.399413 0.854493
vt 0.399413 0.922851
vt 0.850587 0.872071
vt 0.918944 0.872071
vt 0.918944 0.940429
vt 0.323243 0.528321
vt 0.391601 0.528321
vt 0.391601 0.596679
vt 0.581056 0.061524
vt 0.649413 0.061524
vt 0.649413 0.129882
vt 0.842774 0.545899
vt 0.911132 0.545899
vt 0.911132 0.614257
vt 0.081056 0.538087
vt 0.149413 0.538087
vt 0.149413 0.606444
vt 0.842774 0.545899
vt 0.911132 0.545899
vt 0.911132 0.614257
vt 0.581056 0.061524
vt 0.649413 0.129882
vt 0.588868 0.387696
vt 0.657226 0.387696
vt 0.657226 0.456054
vt 0.581056 0.061524
vt 0.649413 0.061524
vt 0.649413 0.129882
vt 0.577149 0.061524
vt 0.645507 0.061524
vt 0.645507 0.129882
vt 0.577149 0.061524
vt 0.645507 0.061524
vt 0.391601 0.528321
vt 0.391601 0.596679
vt 0.588868 0.387696
vt 0.657226 0.387696
vt 0.657226 0.456054
vt 0.840821 0.038087
vt 0.909179 0.038087
vt 0.909179 0.106444
vt 0.850587 0.872071
vt 0.918944 0.872071
vt 0.918944 0.940429
vt 0.840821 0.038087
vt 0.909179 0.038087
vt 0.909179 0.106444
vt 0.581056 0.061524
vt 0.649413 0.061524
vt 0.649413 0.129882
vn 0.0000 -1.0000 0.0000
vn 0.4253 -0.8506 0.3090
vn -0.1625 -0.8506 0.5000
vn 0.7236 -0.4472 0.5257
vn 0.8506 -0.5257 0.0000
vn -0.5257 -0.8506 0.0000
vn -0.1625 -0.8506 -0.5000
vn 0.4253 -0.8506 -0.3090
vn 0.9510 0.0000 0.3090
vn -0.2764 -0.4472 0.8506
vn 0.2629 -0.5257 0.8090
vn 0.0000 0.0000 1.0000
vn -0.8944 -0.4472 0.0000
vn -0.6882 -0.5257 0.5000
vn -0.9510 0.0000 0.3090
vn -0.2764 -0.4472 -0.8506
vn -0.6882 -0.5257 -0.5000
vn -0.5878 0.0000 -0.8090
vn 0.7236 -0.4472 -0.5257
vn 0.2629 -0.5257 -0.8090
vn 0.5878 0.0000 -0.8090
vn 0.5878 0.0000 0.8090
vn -0.5878 0.0000 0.8090
vn -0.9510 0.0000 -0.3090
vn 0.0000 0.0000 -1.0000
vn 0.9510 0.0000 -0.3090
vn 0.2764 0.4472 0.8506
vn 0.6882 0.5257 0.5000
vn 0.1625 0.8506 0.5000
vn -0.7236 0.4472 0.5257
vn -0.2629 0.5257 0.8090
vn -0.4253 0.8506 0.3090
vn -0.7236 0.4472 -0.5257
vn -0.8506 0.5257 0.0000
vn -0.4253 0.8506 -0.3090
vn 0.2764 0.4472 -0.8506
vn -0.2629 0.5257 -0.8090
vn 0.1625 0.8506 -0.5000
vn 0.8944 0.4472 0.0000
vn 0.6882 0.5257 -0.5000
vn 0.5257 0.8506 0.0000
vn 0.0000 1.0000 0.0000
usemtl Material.001
s 1
f 1/1/1 14/2/2 13/3/3
f 2/4/4 14/5/2 16/6/5
f 1/7/1 13/8/3 18/9/6
f 1/10/1 18/11/6 20/12/7
f 1/13/1 20/14/7 17/15/8
f 2/16/4 16/17/5 23/18/9
f 3/19/10 15/20/11 25/21/12
f 4/22/13 19/23/14 27/24/15
f 5/25/16 21/26/17 29/27/18
f 6/28/19 22/29/20 31/30/21
f 2/31/4 23/32/9 26/33/22
f 3/34/10 25/35/12 28/36/23
f 4/37/13 27/38/15 30/39/24
f 5/40/16 29/41/18 32/42/25
f 6/43/19 31/44/21 24/45/26
f 7/46/27 33/47/28 38/48/29
f 8/49/30 34/50/31 40/51/32
f 9/52/33 35/53/34 41/54/35
f 10/55/36 36/56/37 42/57/38
f 11/58/39 37/59/40 39/60/41
f 39/61/41 42/62/38 12/63/42
f 39/64/41 37/65/40 42/66/38
f 37/67/40 10/68/36 42/69/38
f 42/70/38 41/71/35 12/72/42
f 42/73/38 36/74/37 41/75/35
f 36/76/37 9/77/33 41/78/35
f 41/79/35 40/80/32 12/63/42
f 41/81/35 35/82/34 40/83/32
f 35/84/34 8/85/30 40/51/32
f 40/86/32 38/87/29 12/88/42
f 40/89/32 34/90/31 38/91/29
f 34/92/31 7/93/27 38/48/29
f 38/94/29 39/95/41 12/96/42
f 38/94/29 33/97/28 39/98/41
f 33/99/28 11/100/39 39/101/41
f 24/102/26 37/59/40 11/103/39
f 24/104/26 31/105/21 37/106/40
f 31/107/21 10/108/36 37/109/40
f 32/110/25 36/111/37 10/112/36
f 32/113/25 29/114/18 36/115/37
f 29/116/18 9/117/33 36/118/37
f 30/119/24 35/120/34 9/121/33
f 30/122/24 27/123/15 35/124/34
f 27/125/15 8/126/30 35/127/34
f 28/128/23 34/129/31 8/130/30
f 28/131/23 25/132/12 34/133/31
f 25/134/12 7/135/27 34/136/31
f 26/137/22 33/138/28 7/139/27
f 26/140/22 23/141/9 33/142/28
f 23/143/9 11/144/39 33/145/28
f 31/146/21 32/147/25 10/112/36
f 31/148/21 22/149/20 32/150/25
f 22/151/20 5/152/16 32/153/25
f 29/154/18 30/155/24 9/156/33
f 29/157/18 21/158/17 30/39/24
f 21/159/17 4/160/13 30/161/24
f 27/125/15 28/162/23 8/163/30
f 27/164/15 19/165/14 28/166/23
f 19/167/14 3/168/10 28/36/23
f 25/169/12 26/170/22 7/171/27
f 25/172/12 15/173/11 26/174/22
f 15/175/11 2/176/4 26/177/22
f 23/178/9 24/179/26 11/180/39
f 23/181/9 16/182/5 24/183/26
f 16/184/5 6/185/19 24/186/26
f 17/187/8 22/188/20 6/189/19
f 17/190/8 20/191/7 22/192/20
f 20/193/7 5/194/16 22/195/20
f 20/196/7 21/197/17 5/198/16
f 20/199/7 18/11/6 21/200/17
f 18/201/6 4/202/13 21/203/17
f 18/204/6 19/205/14 4/206/13
f 18/207/6 13/208/3 19/209/14
f 13/210/3 3/211/10 19/209/14
f 16/184/5 17/212/8 6/213/19
f 16/214/5 14/215/2 17/216/8
f 14/217/2 1/218/1 17/219/8
f 13/220/3 15/221/11 3/222/10
f 13/223/3 14/224/2 15/225/11
f 14/226/2 2/227/4 15/228/11
