# Blender v2.79 (sub 0) OBJ File: ''
# www.blender.org
mtllib ball1_flat_tex.mtl
o Icosphere
v 0.000000 -1.000000 0.000000
v 0.723607 -0.447220 0.525725
v -0.276388 -0.447220 0.850649
v -0.894426 -0.447216 0.000000
v -0.276388 -0.447220 -0.850649
v 0.723607 -0.447220 -0.525725
v 0.276388 0.447220 0.850649
v -0.723607 0.447220 0.525725
v -0.723607 0.447220 -0.525725
v 0.276388 0.447220 -0.850649
v 0.894426 0.447216 0.000000
v 0.000000 1.000000 0.000000
v -0.162456 -0.850654 0.499995
v 0.425323 -0.850654 0.309011
v 0.262869 -0.525738 0.809012
v 0.850648 -0.525736 0.000000
v 0.425323 -0.850654 -0.309011
v -0.525730 -0.850652 0.000000
v -0.688189 -0.525736 0.499997
v -0.162456 -0.850654 -0.499995
v -0.688189 -0.525736 -0.499997
v 0.262869 -0.525738 -0.809012
v 0.951058 0.000000 0.309013
v 0.951058 0.000000 -0.309013
v 0.000000 0.000000 1.000000
v 0.587786 0.000000 0.809017
v -0.951058 0.000000 0.309013
v -0.587786 0.000000 0.809017
v -0.587786 0.000000 -0.809017
v -0.951058 0.000000 -0.309013
v 0.587786 0.000000 -0.809017
v 0.000000 0.000000 -1.000000
v 0.688189 0.525736 0.499997
v -0.262869 0.525738 0.809012
v -0.850648 0.525736 0.000000
v -0.262869 0.525738 -0.809012
v 0.688189 0.525736 -0.499997
v 0.162456 0.850654 0.499995
v 0.525730 0.850652 0.000000
v -0.425323 0.850654 0.309011
v -0.425323 0.850654 -0.309011
v 0.162456 0.850654 -0.499995
vt 0.577149 0.061524
vt 0.645507 0.061524
vt 0.645507 0.129882
vt 0.323243 0.528321
vt 0.391601 0.528321
vt 0.391601 0.596679
vt 0.094727 0.395509
vt 0.163085 0.395509
vt 0.163085 0.463866
vt 0.581056 0.061524
vt 0.649413 0.061524
vt 0.649413 0.129882
vt 0.329102 0.059571
vt 0.397460 0.059571
vt 0.397460 0.127929
vt 0.581056 0.061524
vt 0.649413 0.061524
vt 0.649413 0.129882
vt 0.094727 0.395509
vt 0.163085 0.395509
vt 0.163085 0.463866
vt 0.829102 0.055665
vt 0.897460 0.055665
vt 0.897460 0.124023
vt 0.829102 0.055665
vt 0.897460 0.055665
vt 0.897460 0.124023
vt 0.842774 0.545899
vt 0.911132 0.545899
vt 0.911132 0.614257
vt 0.081056 0.538087
vt 0.149413 0.538087
vt 0.149413 0.606444
vt 0.329102 0.059571
vt 0.397460 0.059571
vt 0.397460 0.127929
vt 0.588868 0.387696
vt 0.657226 0.387696
vt 0.657226 0.456054
vt 0.094727 0.395509
vt 0.163085 0.395509
vt 0.163085 0.463866
vt 0.840821 0.038087
vt 0.909179 0.038087
vt 0.909179 0.106444
vt 0.336915 0.385743
vt 0.405273 0.385743
vt 0.405273 0.454101
vt 0.086915 0.069337
vt 0.155273 0.069337
vt 0.155273 0.137694
vt 0.588868 0.387696
vt 0.657226 0.387696
vt 0.657226 0.456054
vt 0.840821 0.038087
vt 0.909179 0.038087
vt 0.909179 0.106444
vt 0.850587 0.872071
vt 0.918944 0.872071
vt 0.918944 0.940429
vt 0.840821 0.038087
vt 0.909179 0.038087
vt 0.909179 0.106444
vt 0.588868 0.387696
vt 0.657226 0.387696
vt 0.657226 0.456054
vt 0.331056 0.854493
vt 0.399413 0.854493
vt 0.399413 0.922851
vt 0.850587 0.872071
vt 0.918944 0.872071
vt 0.918944 0.940429
vt 0.329102 0.059571
vt 0.397460 0.059571
vt 0.397460 0.127929
vt 0.840821 0.038087
vt 0.909179 0.038087
vt 0.909179 0.106444
vt 0.840821 0.038087
vt 0.909179 0.038087
vt 0.842774 0.545899
vt 0.911132 0.545899
vt 0.911132 0.614257
vt 0.086915 0.069337
vt 0.155273 0.069337
vt 0.329102 0.059571
vt 0.397460 0.059571
vt 0.397460 0.127929
vt 0.588868 0.387696
vt 0.657226 0.387696
vt 0.657226 0.456054
vt 0.336915 0.385743
vt 0.405273 0.385743
vt 0.581056 0.061524
vt 0.649413 0.061524
vt 0.649413 0.129882
vt 0.649413 0.061524
vt 0.649413 0.129882
vt 0.584962 0.387696
vt 0.653319 0.387696
vt 0.653319 0.456054
vt 0.850587 0.872071
vt 0.918944 0.940429
vt 0.336915 0.385743
vt 0.405273 0.385743
vt 0.405273 0.454101
vt 0.329102 0.059571
vt 0.397460 0.059571
vt 0.397460 0.127929
vt 0.323243 0.528321
vt 0.391601 0.528321
vt 0.391601 0.596679
vt 0.584962 0.387696
vt 0.653319 0.387696
vt 0.653319 0.456054
vt 0.829102 0.055665
vt 0.897460 0.055665
vt 0.897460 0.124023
vt 0.094727 0.395509
vt 0.163085 0.395509
vt 0.163085 0.463866
vt 0.336915 0.385743
vt 0.405273 0.385743
vt 0.405273 0.454101
vt 0.850587 0.872071
vt 0.918944 0.872071
vt 0.918944 0.940429
vt 0.088868 0.864259
vt 0.157226 0.864259
vt 0.157226 0.932616
vt 0.581056 0.061524
vt 0.649413 0.061524
vt 0.649413 0.129882
vt 0.577149 0.061524
vt 0.645507 0.061524
vt 0.645507 0.129882
vt 0.577149 0.061524
vt 0.645507 0.061524
vt 0.645507 0.129882
vt 0.331056 0.854493
vt 0.399413 0.854493
vt 0.399413 0.922851
vt 0.081056 0.538087
vt 0.149413 0.538087
vt 0.149413 0.606444
vt 0.323243 0.528321
vt 0.391601 0.528321
vt 0.336915 0.385743
vt 0.405273 0.385743
vt 0.405273 0.454101
vt 0.842774 0.545899
vt 0.911132 0.545899
vt 0.911132 0.614257
vt 0.850587 0.872071
vt 0.918944 0.872071
vt 0.918944 0.940429
vt 0.588868 0.387696
vt 0.657226 0.387696
vt 0.081056 0.538087
vt 0.149413 0.538087
vt 0.149413 0.606444
vt 0.918944 0.872071
vt 0.918944 0.940429
vt 0.081056 0.538087
vt 0.149413 0.538087
vt 0.149413 0.606444
vt 0.329102 0.059571
vt 0.397460 0.059571
vt 0.094727 0.395509
vt 0.163085 0.395509
vt 0.163085 0.463866
vt 0.086915 0.069337
vt 0.155273 0.069337
vt 0.155273 0.137694
vt 0.840821 0.038087
vt 0.909179 0.038087
vt 0.909179 0.106444
vt 0.331056 0.854493
vt 0.399413 0.854493
vt 0.399413 0.922851
vt 0.850587 0.872071
vt 0.918944 0.872071
vt 0.918944 0.940429
vt 0.323243 0.528321
vt 0.391601 0.528321
vt 0.391601 0.596679
vt 0.581056 0.061524
vt 0.649413 0.061524
vt 0.649413 0.129882
vt 0.842774 0.545899
vt 0.911132 0.545899
vt 0.911132 0.614257
vt 0.081056 0.538087
vt 0.149413 0.538087
vt 0.149413 0.606444
vt 0.842774 0.545899
vt 0.911132 0.545899
vt 0.911132 0.614257
vt 0.581056 0.061524
vt 0.649413 0.129882
vt 0.588868 0.387696
vt 0.657226 0.387696
vt 0.657226 0.456054
vt 0.581056 0.061524
vt 0.649413 0.061524
vt 0.649413 0.129882
vt 0.577149 0.061524
vt 0.645507 0.061524
vt 0.645507 0.129882
vt 0.577149 0.061524
vt 0.645507 0.061524
vt 0.391601 0.528321
vt 0.391601 0.596679
vt 0.588868 0.387696
vt 0.657226 0.387696
vt 0.657226 0.456054
vt 0.840821 0.038087
vt 0.909179 0.038087
vt 0.909179 0.106444
vt 0.850587 0.872071
vt 0.918944 0.872071
vt 0.918944 0.940429
vt 0.840821 0.038087
vt 0.909179 0.038087
vt 0.909179 0.106444
vt 0.581056 0.061524
vt 0.649413 0.061524
vt 0.649413 0.129882
vn 0.1024 -0.9435 0.3151
vn 0.7002 -0.6617 0.2680
vn -0.2680 -0.9435 0.1947
vn -0.2680 -0.9435 -0.1947
vn 0.1024 -0.9435 -0.3151
vn 0.9050 -0.3304 0.2680
vn 0.0247 -0.3304 0.9435
vn -0.8897 -0.3304 0.3151
vn -0.5746 -0.3304 -0.7488
vn 0.5346 -0.3304 -0.7779
vn 0.8026 -0.1256 0.5831
vn -0.3066 -0.1256 0.9435
vn -0.9921 -0.1256 0.0000
vn -0.3066 -0.1256 -0.9435
vn 0.8026 -0.1256 -0.5831
vn 0.4089 0.6617 0.6284
vn -0.4713 0.6617 0.5831
vn -0.7002 0.6617 -0.2680
vn 0.0385 0.6617 -0.7488
vn 0.7240 0.6617 -0.1947
vn 0.2680 0.9435 -0.1947
vn 0.4911 0.7947 -0.3568
vn 0.4089 0.6617 -0.6284
vn -0.1024 0.9435 -0.3151
vn -0.1876 0.7947 -0.5773
vn -0.4713 0.6617 -0.5831
vn -0.3313 0.9435 0.0000
vn -0.6071 0.7947 0.0000
vn -0.7002 0.6617 0.2680
vn -0.1024 0.9435 0.3151
vn -0.1876 0.7947 0.5773
vn 0.0385 0.6617 0.7488
vn 0.2680 0.9435 0.1947
vn 0.4911 0.7947 0.3568
vn 0.7240 0.6617 0.1947
vn 0.8897 0.3304 -0.3151
vn 0.7947 0.1876 -0.5773
vn 0.5746 0.3304 -0.7488
vn -0.0247 0.3304 -0.9435
vn -0.3035 0.1876 -0.9342
vn -0.5346 0.3304 -0.7779
vn -0.9050 0.3304 -0.2680
vn -0.9822 0.1876 0.0000
vn -0.9050 0.3304 0.2680
vn -0.5346 0.3304 0.7779
vn -0.3035 0.1876 0.9342
vn -0.0247 0.3304 0.9435
vn 0.5746 0.3304 0.7488
vn 0.7947 0.1876 0.5773
vn 0.8897 0.3304 0.3151
vn 0.3066 0.1256 -0.9435
vn 0.3035 -0.1876 -0.9342
vn 0.0247 -0.3304 -0.9435
vn -0.8026 0.1256 -0.5831
vn -0.7947 -0.1876 -0.5773
vn -0.8897 -0.3304 -0.3151
vn -0.8026 0.1256 0.5831
vn -0.7947 -0.1876 0.5773
vn -0.5746 -0.3304 0.7488
vn 0.3066 0.1256 0.9435
vn 0.3035 -0.1876 0.9342
vn 0.5346 -0.3304 0.7779
vn 0.9921 0.1256 0.0000
vn 0.9822 -0.1876 0.0000
vn 0.9050 -0.3304 -0.2680
vn 0.4713 -0.6617 -0.5831
vn 0.1876 -0.7947 -0.5773
vn -0.0385 -0.6617 -0.7488
vn -0.4089 -0.6617 -0.6284
vn -0.4911 -0.7947 -0.3568
vn -0.7240 -0.6617 -0.1947
vn -0.7240 -0.6617 0.1947
vn -0.4911 -0.7947 0.3568
vn -0.4089 -0.6617 0.6284
vn 0.7002 -0.6617 -0.2680
vn 0.6071 -0.7947 0.0000
vn 0.3313 -0.9435 0.0000
vn -0.0385 -0.6617 0.7488
vn 0.1876 -0.7947 0.5773
vn 0.4713 -0.6617 0.5831
usemtl Material.001
s off
f 1/1/1 14/2/1 13/3/1
f 2/4/2 14/5/2 16/6/2
f 1/7/3 13/8/3 18/9/3
f 1/10/4 18/11/4 20/12/4
f 1/13/5 20/14/5 17/15/5
f 2/16/6 16/17/6 23/18/6
f 3/19/7 15/20/7 25/21/7
f 4/22/8 19/23/8 27/24/8
f 5/25/9 21/26/9 29/27/9
f 6/28/10 22/29/10 31/30/10
f 2/31/11 23/32/11 26/33/11
f 3/34/12 25/35/12 28/36/12
f 4/37/13 27/38/13 30/39/13
f 5/40/14 29/41/14 32/42/14
f 6/43/15 31/44/15 24/45/15
f 7/46/16 33/47/16 38/48/16
f 8/49/17 34/50/17 40/51/17
f 9/52/18 35/53/18 41/54/18
f 10/55/19 36/56/19 42/57/19
f 11/58/20 37/59/20 39/60/20
f 39/61/21 42/62/21 12/63/21
f 39/64/22 37/65/22 42/66/22
f 37/67/23 10/68/23 42/69/23
f 42/70/24 41/71/24 12/72/24
f 42/73/25 36/74/25 41/75/25
f 36/76/26 9/77/26 41/78/26
f 41/79/27 40/80/27 12/63/27
f 41/81/28 35/82/28 40/83/28
f 35/84/29 8/85/29 40/51/29
f 40/86/30 38/87/30 12/88/30
f 40/89/31 34/90/31 38/91/31
f 34/92/32 7/93/32 38/48/32
f 38/94/33 39/95/33 12/96/33
f 38/94/34 33/97/34 39/98/34
f 33/99/35 11/100/35 39/101/35
f 24/102/36 37/59/36 11/103/36
f 24/104/37 31/105/37 37/106/37
f 31/107/38 10/108/38 37/109/38
f 32/110/39 36/111/39 10/112/39
f 32/113/40 29/114/40 36/115/40
f 29/116/41 9/117/41 36/118/41
f 30/119/42 35/120/42 9/121/42
f 30/122/43 27/123/43 35/124/43
f 27/125/44 8/126/44 35/127/44
f 28/128/45 34/129/45 8/130/45
f 28/131/46 25/132/46 34/133/46
f 25/134/47 7/135/47 34/136/47
f 26/137/48 33/138/48 7/139/48
f 26/140/49 23/141/49 33/142/49
f 23/143/50 11/144/50 33/145/50
f 31/146/51 32/147/51 10/112/51
f 31/148/52 22/149/52 32/150/52
f 22/151/53 5/152/53 32/153/53
f 29/154/54 30/155/54 9/156/54
f 29/157/55 21/158/55 30/39/55
f 21/159/56 4/160/56 30/161/56
f 27/125/57 28/162/57 8/163/57
f 27/164/58 19/165/58 28/166/58
f 19/167/59 3/168/59 28/36/59
f 25/169/60 26/170/60 7/171/60
f 25/172/61 15/173/61 26/174/61
f 15/175/62 2/176/62 26/177/62
f 23/178/63 24/179/63 11/180/63
f 23/181/64 16/182/64 24/183/64
f 16/184/65 6/185/65 24/186/65
f 17/187/66 22/188/66 6/189/66
f 17/190/67 20/191/67 22/192/67
f 20/193/68 5/194/68 22/195/68
f 20/196/69 21/197/69 5/198/69
f 20/199/70 18/11/70 21/200/70
f 18/201/71 4/202/71 21/203/71
f 18/204/72 19/205/72 4/206/72
f 18/207/73 13/208/73 19/209/73
f 13/210/74 3/211/74 19/209/74
f 16/184/75 17/212/75 6/213/75
f 16/214/76 14/215/76 17/216/76
f 14/217/77 1/218/77 17/219/77
f 13/220/78 15/221/78 3/222/78
f 13/223/79 14/224/79 15/225/79
f 14/226/80 2/227/80 15/228/80
